# xmcd CD database file
#
# Track frame offsets:
#	150
#	8067
#	16710
#	36235
#	51277
#	57047
#	74172
#	89675
#	105162
#	115805
#
# Disc length: 1695 seconds
#
# Revision: 3
# Processed by: cddbd v1.5.2PL0 Copyright (c) Steve Scherf et al.
# Submitted via: CDex 1.51
#
DISCID=7b069d0a
DTITLE=FEEL SO BAD - Rock'n Roll Hymn
DYEAR=1999
DGENRE=ヘヴィメタル
TTITLE0=F･S･Bと楽しいクリスマス
TTITLE1=赤鼻のトナカイ
TTITLE2=Christmas Night
TTITLE3=今日はクリスマス
TTITLE4=WHITE CHRISTMAS
TTITLE5=愛をどうしよう
TTITLE6=ゆきふみ
TTITLE7=灼熱のメリークリスマス
TTITLE8=溜息は空へ
TTITLE9=ポチのお留守番
EXTD=YEAR: 1999
EXTT0=
EXTT1=
EXTT2=
EXTT3=
EXTT4=
EXTT5=
EXTT6=
EXTT7=
EXTT8=
EXTT9=
PLAYORDER=
